<svg width="16" height="16" viewBox="0 0 16 16" fill="none" xmlns="http://www.w3.org/2000/svg">
<mask id="path-1-outside-1_1541_6929" maskUnits="userSpaceOnUse" x="1.16602" y="1.16797" width="14" height="14" fill="black">
<rect fill="white" x="1.16602" y="1.16797" width="14" height="14"/>
<path fill-rule="evenodd" clip-rule="evenodd" d="M8.00094 10.5013C7.93525 10.5016 7.87015 10.4888 7.80948 10.4636C7.7488 10.4384 7.69377 10.4014 7.64761 10.3546L4.98094 7.68797C4.89262 7.59318 4.84454 7.46782 4.84682 7.33829C4.84911 7.20875 4.90158 7.08516 4.99319 6.99355C5.0848 6.90195 5.20839 6.84947 5.33792 6.84718C5.46746 6.8449 5.59282 6.89298 5.68761 6.9813L7.50094 8.79463V2.66797C7.50094 2.53536 7.55362 2.40818 7.64739 2.31442C7.74115 2.22065 7.86833 2.16797 8.00094 2.16797C8.13355 2.16797 8.26072 2.22065 8.35449 2.31442C8.44826 2.40818 8.50094 2.53536 8.50094 2.66797V8.79463L10.3143 6.9813C10.4091 6.89298 10.5344 6.8449 10.664 6.84718C10.7935 6.84947 10.9171 6.90195 11.0087 6.99355C11.1003 7.08516 11.1528 7.20875 11.1551 7.33829C11.1573 7.46782 11.1093 7.59318 11.0209 7.68797L8.35427 10.3546C8.30811 10.4014 8.25308 10.4384 8.1924 10.4636C8.13173 10.4888 8.06663 10.5016 8.00094 10.5013ZM3.85427 13.8346C3.62308 13.8252 3.39602 13.7703 3.18608 13.673C2.97614 13.5757 2.78744 13.438 2.63078 13.2677C2.47412 13.0974 2.35257 12.8979 2.2731 12.6806C2.19362 12.4633 2.15777 12.2325 2.16761 12.0013V10.0013C2.16761 9.86869 2.22028 9.74152 2.31405 9.64775C2.40782 9.55398 2.535 9.5013 2.66761 9.5013C2.80021 9.5013 2.92739 9.55398 3.02116 9.64775C3.11493 9.74152 3.16761 9.86869 3.16761 10.0013V12.0013C3.15039 12.1993 3.21003 12.3962 3.33416 12.5514C3.45829 12.7065 3.63737 12.808 3.83427 12.8346H12.1476C12.3445 12.808 12.5236 12.7065 12.6477 12.5514C12.7718 12.3962 12.8315 12.1993 12.8143 12.0013V10.0013C12.8143 9.86869 12.867 9.74152 12.9607 9.64775C13.0545 9.55398 13.1817 9.5013 13.3143 9.5013C13.4469 9.5013 13.5741 9.55398 13.6678 9.64775C13.7616 9.74152 13.8143 9.86869 13.8143 10.0013V12.0013C13.8342 12.4649 13.6703 12.9176 13.3582 13.2609C13.0461 13.6043 12.611 13.8105 12.1476 13.8346H3.85427Z"/>
</mask>
<path fill-rule="evenodd" clip-rule="evenodd" d="M8.00094 10.5013C7.93525 10.5016 7.87015 10.4888 7.80948 10.4636C7.7488 10.4384 7.69377 10.4014 7.64761 10.3546L4.98094 7.68797C4.89262 7.59318 4.84454 7.46782 4.84682 7.33829C4.84911 7.20875 4.90158 7.08516 4.99319 6.99355C5.0848 6.90195 5.20839 6.84947 5.33792 6.84718C5.46746 6.8449 5.59282 6.89298 5.68761 6.9813L7.50094 8.79463V2.66797C7.50094 2.53536 7.55362 2.40818 7.64739 2.31442C7.74115 2.22065 7.86833 2.16797 8.00094 2.16797C8.13355 2.16797 8.26072 2.22065 8.35449 2.31442C8.44826 2.40818 8.50094 2.53536 8.50094 2.66797V8.79463L10.3143 6.9813C10.4091 6.89298 10.5344 6.8449 10.664 6.84718C10.7935 6.84947 10.9171 6.90195 11.0087 6.99355C11.1003 7.08516 11.1528 7.20875 11.1551 7.33829C11.1573 7.46782 11.1093 7.59318 11.0209 7.68797L8.35427 10.3546C8.30811 10.4014 8.25308 10.4384 8.1924 10.4636C8.13173 10.4888 8.06663 10.5016 8.00094 10.5013ZM3.85427 13.8346C3.62308 13.8252 3.39602 13.7703 3.18608 13.673C2.97614 13.5757 2.78744 13.438 2.63078 13.2677C2.47412 13.0974 2.35257 12.8979 2.2731 12.6806C2.19362 12.4633 2.15777 12.2325 2.16761 12.0013V10.0013C2.16761 9.86869 2.22028 9.74152 2.31405 9.64775C2.40782 9.55398 2.535 9.5013 2.66761 9.5013C2.80021 9.5013 2.92739 9.55398 3.02116 9.64775C3.11493 9.74152 3.16761 9.86869 3.16761 10.0013V12.0013C3.15039 12.1993 3.21003 12.3962 3.33416 12.5514C3.45829 12.7065 3.63737 12.808 3.83427 12.8346H12.1476C12.3445 12.808 12.5236 12.7065 12.6477 12.5514C12.7718 12.3962 12.8315 12.1993 12.8143 12.0013V10.0013C12.8143 9.86869 12.867 9.74152 12.9607 9.64775C13.0545 9.55398 13.1817 9.5013 13.3143 9.5013C13.4469 9.5013 13.5741 9.55398 13.6678 9.64775C13.7616 9.74152 13.8143 9.86869 13.8143 10.0013V12.0013C13.8342 12.4649 13.6703 12.9176 13.3582 13.2609C13.0461 13.6043 12.611 13.8105 12.1476 13.8346H3.85427Z" fill="white"/>
<path d="M7.80948 10.4636L7.65612 10.833L7.65613 10.833L7.80948 10.4636ZM8.00094 10.5013L8.00283 10.1013L7.99905 10.1013L8.00094 10.5013ZM7.64761 10.3546L7.93221 10.0736L7.93045 10.0718L7.64761 10.3546ZM4.98094 7.68797L4.68811 7.96083L4.6981 7.97081L4.98094 7.68797ZM4.84682 7.33829L4.44688 7.33123L4.44688 7.33123L4.84682 7.33829ZM4.99319 6.99355L5.27603 7.2764L5.27603 7.2764L4.99319 6.99355ZM5.68761 6.9813L5.97062 6.69828L5.96029 6.68866L5.68761 6.9813ZM7.50094 8.79463L7.2181 9.07748L7.90094 9.76032V8.79463H7.50094ZM7.64739 2.31442L7.36454 2.03157L7.36454 2.03157L7.64739 2.31442ZM8.35449 2.31442L8.63734 2.03157L8.63733 2.03157L8.35449 2.31442ZM8.50094 8.79463H8.10094V9.76032L8.78378 9.07748L8.50094 8.79463ZM10.3143 6.9813L10.0414 6.68848L10.0314 6.69846L10.3143 6.9813ZM10.664 6.84718L10.6569 7.24712L10.6569 7.24712L10.664 6.84718ZM11.0087 6.99355L11.2915 6.71071L11.2915 6.71071L11.0087 6.99355ZM11.1551 7.33829L11.555 7.33123L11.555 7.33123L11.1551 7.33829ZM11.0209 7.68797L11.304 7.97099L11.3136 7.96066L11.0209 7.68797ZM8.35427 10.3546L8.07142 10.0718L8.06967 10.0736L8.35427 10.3546ZM8.1924 10.4636L8.34575 10.833L8.34575 10.833L8.1924 10.4636ZM3.18608 13.673L3.35425 13.3101L3.35424 13.3101L3.18608 13.673ZM3.85427 13.8346L3.83797 14.2343L3.84612 14.2346H3.85427V13.8346ZM2.63078 13.2677L2.92515 12.9969L2.92515 12.9969L2.63078 13.2677ZM2.16761 12.0013L2.56724 12.0183L2.56761 12.0098V12.0013H2.16761ZM3.02116 9.64775L3.304 9.36491L3.304 9.36491L3.02116 9.64775ZM3.16761 12.0013L3.5661 12.036L3.56761 12.0187V12.0013H3.16761ZM3.33416 12.5514L3.64651 12.3015L3.64651 12.3015L3.33416 12.5514ZM3.83427 12.8346L3.7806 13.231L3.80732 13.2346H3.83427V12.8346ZM12.1476 12.8346V13.2346H12.1746L12.2013 13.231L12.1476 12.8346ZM12.6477 12.5514L12.3354 12.3015L12.3354 12.3015L12.6477 12.5514ZM12.8143 12.0013H12.4143V12.0187L12.4158 12.036L12.8143 12.0013ZM13.8143 12.0013H13.4143V12.0099L13.4146 12.0185L13.8143 12.0013ZM13.3582 13.2609L13.6542 13.53L13.6542 13.53L13.3582 13.2609ZM12.1476 13.8346V14.2346H12.158L12.1684 14.2341L12.1476 13.8346ZM7.65613 10.833C7.766 10.8787 7.88387 10.9019 8.00283 10.9013L7.99905 10.1013C7.98662 10.1014 7.97431 10.0989 7.96283 10.0942L7.65613 10.833ZM7.36301 10.6357C7.4466 10.7203 7.54625 10.7874 7.65612 10.833L7.96283 10.0942C7.95135 10.0894 7.94094 10.0824 7.9322 10.0736L7.36301 10.6357ZM4.6981 7.97081L7.36476 10.6375L7.93045 10.0718L5.26378 7.40513L4.6981 7.97081ZM4.44688 7.33123C4.44277 7.56439 4.52932 7.79005 4.68829 7.96066L5.27358 7.41528C5.25592 7.39632 5.2463 7.37125 5.24676 7.34534L4.44688 7.33123ZM4.71035 6.71071C4.54545 6.87561 4.451 7.09807 4.44688 7.33123L5.24676 7.34534C5.24722 7.31944 5.25771 7.29472 5.27603 7.2764L4.71035 6.71071ZM5.33087 6.44725C5.09771 6.45136 4.87524 6.54582 4.71035 6.71071L5.27603 7.2764C5.29436 7.25807 5.31907 7.24758 5.34498 7.24712L5.33087 6.44725ZM5.96029 6.68866C5.78969 6.52968 5.56403 6.44313 5.33087 6.44725L5.34498 7.24712C5.37089 7.24667 5.39596 7.25628 5.41492 7.27395L5.96029 6.68866ZM7.78378 8.51179L5.97045 6.69846L5.40476 7.26414L7.2181 9.07748L7.78378 8.51179ZM7.90094 8.79463V2.66797H7.10094V8.79463H7.90094ZM7.90094 2.66797C7.90094 2.64145 7.91147 2.61601 7.93023 2.59726L7.36454 2.03157C7.19576 2.20036 7.10094 2.42927 7.10094 2.66797H7.90094ZM7.93023 2.59726C7.94898 2.5785 7.97442 2.56797 8.00094 2.56797V1.76797C7.76224 1.76797 7.53333 1.86279 7.36454 2.03157L7.93023 2.59726ZM8.00094 2.56797C8.02746 2.56797 8.0529 2.5785 8.07165 2.59726L8.63733 2.03157C8.46855 1.86279 8.23963 1.76797 8.00094 1.76797V2.56797ZM8.07165 2.59726C8.0904 2.61601 8.10094 2.64145 8.10094 2.66797H8.90094C8.90094 2.42927 8.80612 2.20036 8.63734 2.03157L8.07165 2.59726ZM8.10094 2.66797V8.79463H8.90094V2.66797H8.10094ZM10.0314 6.69846L8.2181 8.51179L8.78378 9.07748L10.5971 7.26414L10.0314 6.69846ZM10.671 6.44725C10.4378 6.44313 10.2122 6.52968 10.0416 6.68866L10.587 7.27395C10.6059 7.25628 10.631 7.24667 10.6569 7.24712L10.671 6.44725ZM11.2915 6.71071C11.1266 6.54582 10.9042 6.45136 10.671 6.44725L10.6569 7.24712C10.6828 7.24758 10.7075 7.25807 10.7258 7.2764L11.2915 6.71071ZM11.555 7.33123C11.5509 7.09807 11.4564 6.87561 11.2915 6.71071L10.7258 7.2764C10.7442 7.29472 10.7547 7.31944 10.7551 7.34534L11.555 7.33123ZM11.3136 7.96066C11.4726 7.79005 11.5591 7.56439 11.555 7.33123L10.7551 7.34534C10.7556 7.37125 10.746 7.39632 10.7283 7.41528L11.3136 7.96066ZM8.63711 10.6375L11.3038 7.97081L10.7381 7.40513L8.07143 10.0718L8.63711 10.6375ZM8.34575 10.833C8.45562 10.7874 8.55528 10.7204 8.63887 10.6357L8.06967 10.0736C8.06094 10.0824 8.05053 10.0894 8.03905 10.0942L8.34575 10.833ZM7.99905 10.9013C8.11801 10.9019 8.23588 10.8787 8.34575 10.833L8.03905 10.0942C8.02757 10.0989 8.01526 10.1014 8.00283 10.1013L7.99905 10.9013ZM3.01791 14.0359C3.27557 14.1553 3.55423 14.2227 3.83797 14.2343L3.87058 13.435C3.69193 13.4277 3.51647 13.3852 3.35425 13.3101L3.01791 14.0359ZM2.3364 13.5385C2.52867 13.7475 2.76025 13.9165 3.01791 14.0359L3.35424 13.3101C3.19202 13.2349 3.04621 13.1285 2.92515 12.9969L2.3364 13.5385ZM1.89743 12.818C1.99497 13.0847 2.14414 13.3296 2.3364 13.5385L2.92515 12.9969C2.80409 12.8653 2.71017 12.7112 2.64876 12.5432L1.89743 12.818ZM1.76797 11.9843C1.7559 12.268 1.79989 12.5513 1.89743 12.818L2.64876 12.5432C2.58735 12.3753 2.55965 12.1969 2.56724 12.0183L1.76797 11.9843ZM1.76761 10.0013V12.0013H2.56761V10.0013H1.76761ZM2.03121 9.36491C1.86243 9.53369 1.76761 9.76261 1.76761 10.0013H2.56761C2.56761 9.97478 2.57814 9.94934 2.59689 9.93059L2.03121 9.36491ZM2.66761 9.1013C2.42891 9.1013 2.19999 9.19612 2.03121 9.36491L2.59689 9.93059C2.61565 9.91184 2.64108 9.9013 2.66761 9.9013V9.1013ZM3.304 9.36491C3.13522 9.19612 2.9063 9.1013 2.66761 9.1013V9.9013C2.69413 9.9013 2.71956 9.91184 2.73832 9.93059L3.304 9.36491ZM3.56761 10.0013C3.56761 9.76261 3.47278 9.53369 3.304 9.36491L2.73832 9.93059C2.75707 9.94934 2.76761 9.97478 2.76761 10.0013H3.56761ZM3.56761 12.0013V10.0013H2.76761V12.0013H3.56761ZM3.64651 12.3015C3.58658 12.2266 3.55779 12.1315 3.5661 12.036L2.76911 11.9667C2.74299 12.267 2.83348 12.5659 3.02181 12.8013L3.64651 12.3015ZM3.88794 12.4383C3.79288 12.4254 3.70643 12.3764 3.64651 12.3015L3.02181 12.8013C3.21014 13.0367 3.48186 13.1906 3.7806 13.231L3.88794 12.4383ZM12.1476 12.4346H3.83427V13.2346H12.1476V12.4346ZM12.3354 12.3015C12.2754 12.3764 12.189 12.4254 12.0939 12.4383L12.2013 13.231C12.5 13.1906 12.7717 13.0367 12.9601 12.8013L12.3354 12.3015ZM12.4158 12.036C12.4241 12.1315 12.3953 12.2266 12.3354 12.3015L12.9601 12.8013C13.1484 12.5659 13.2389 12.267 13.2128 11.9667L12.4158 12.036ZM12.4143 10.0013V12.0013H13.2143V10.0013H12.4143ZM12.6779 9.36491C12.5091 9.53369 12.4143 9.7626 12.4143 10.0013H13.2143C13.2143 9.97478 13.2248 9.94935 13.2436 9.93059L12.6779 9.36491ZM13.3143 9.1013C13.0756 9.1013 12.8467 9.19612 12.6779 9.36491L13.2436 9.93059C13.2623 9.91184 13.2878 9.9013 13.3143 9.9013V9.1013ZM13.9507 9.36491C13.7819 9.19612 13.553 9.1013 13.3143 9.1013V9.9013C13.3408 9.9013 13.3662 9.91184 13.385 9.93059L13.9507 9.36491ZM14.2143 10.0013C14.2143 9.76261 14.1195 9.53369 13.9507 9.36491L13.385 9.93059C13.4037 9.94934 13.4143 9.97478 13.4143 10.0013H14.2143ZM14.2143 12.0013V10.0013H13.4143V12.0013H14.2143ZM13.6542 13.53C14.0372 13.1086 14.2384 12.553 14.2139 11.9841L13.4146 12.0185C13.4301 12.3767 13.3034 12.7266 13.0622 12.9919L13.6542 13.53ZM12.1684 14.2341C12.7371 14.2044 13.2711 13.9514 13.6542 13.53L13.0622 12.9919C12.821 13.2572 12.4848 13.4165 12.1268 13.4352L12.1684 14.2341ZM3.85427 14.2346H12.1476V13.4346H3.85427V14.2346Z" fill="white" mask="url(#path-1-outside-1_1541_6929)"/>
</svg>
