<svg width="24" height="24" viewBox="0 0 24 24" fill="none" xmlns="http://www.w3.org/2000/svg">
<path fill-rule="evenodd" clip-rule="evenodd" d="M8.00003 2.08203C8.41424 2.08203 8.75003 2.41782 8.75003 2.83203V3.7487H13.5L13.5489 3.7487C14.1637 3.74869 14.7295 3.74869 15.25 3.75539V2.83203C15.25 2.41782 15.5858 2.08203 16 2.08203C16.4142 2.08203 16.75 2.41782 16.75 2.83203V3.80678C16.9873 3.8224 17.212 3.84222 17.4248 3.86738C18.4558 3.98924 19.3045 4.24508 20.0134 4.8269C20.2539 5.02428 20.4744 5.24482 20.6718 5.48533C21.2536 6.19428 21.5095 7.04298 21.6313 8.07395C21.7501 9.07813 21.75 10.3474 21.75 11.9496V11.9497V11.9498V11.9987V12.0476V12.0477V12.0478C21.75 13.65 21.7501 14.9193 21.6313 15.9234C21.5095 16.9544 21.2536 17.8031 20.6718 18.5121C20.4744 18.7526 20.2539 18.9731 20.0134 19.1705C19.3045 19.7523 18.4558 20.0082 17.4248 20.13C16.4206 20.2487 15.1512 20.2487 13.5489 20.2487H13.5H11H10.9436C9.10586 20.2487 7.65022 20.2487 6.51101 20.0956C5.33858 19.9379 4.38964 19.6058 3.64127 18.8575C2.89291 18.1091 2.56079 17.1601 2.40316 15.9877C2.25 14.8485 2.25001 13.3929 2.25003 11.5552L2.25003 11.5552L2.25003 11.5551L2.25003 11.4987V9.77648L2.25001 9.6547C2.24981 8.5834 2.24968 7.90104 2.39874 7.31943C2.82926 5.63963 4.14096 4.32793 5.82076 3.89741C6.21908 3.79533 6.66464 3.76322 7.25003 3.75318V2.83203C7.25003 2.41782 7.58582 2.08203 8.00003 2.08203ZM15.25 5.25563V5.33203C15.25 5.74624 15.5858 6.08203 16 6.08203C16.4142 6.08203 16.75 5.74624 16.75 5.33203V5.31019C16.9253 5.32296 17.0911 5.33838 17.2487 5.35701C18.1381 5.46213 18.6644 5.66027 19.0618 5.98641C19.2264 6.12147 19.3773 6.27236 19.5123 6.43692C19.8385 6.83432 20.0366 7.36067 20.1417 8.25003C20.2488 9.15594 20.25 10.3366 20.25 11.9987C20.25 13.6608 20.2488 14.8415 20.1417 15.7474C20.0366 16.6367 19.8385 17.1631 19.5123 17.5605C19.3773 17.725 19.2264 17.8759 19.0618 18.011C18.6644 18.3371 18.1381 18.5353 17.2487 18.6404C16.3428 18.7475 15.1621 18.7487 13.5 18.7487H11C9.09321 18.7487 7.73854 18.7471 6.71088 18.6089C5.70479 18.4737 5.12514 18.22 4.70193 17.7968C4.27872 17.3736 4.02505 16.7939 3.88979 15.7879C3.75162 14.7602 3.75003 13.4055 3.75003 11.4987V9.77648C3.75003 8.54213 3.75595 8.06575 3.85178 7.69183C4.14635 6.54249 5.04383 5.64501 6.19316 5.35045C6.43903 5.28744 6.7292 5.2633 7.25003 5.25415V5.33203C7.25003 5.74624 7.58582 6.08203 8.00003 6.08203C8.41424 6.08203 8.75003 5.74624 8.75003 5.33203V5.2487H13.5C14.1536 5.2487 14.7328 5.24889 15.25 5.25563Z" fill="#3A3A3A"/>
<path d="M17 9H7" stroke="#3FA9B8" stroke-width="1.5" stroke-linecap="round" stroke-linejoin="round"/>
</svg>
