<svg width="32" height="32" viewBox="0 0 32 32" fill="none" xmlns="http://www.w3.org/2000/svg">
<path d="M31.5 16C31.5 24.5604 24.5604 31.5 16 31.5C7.43959 31.5 0.5 24.5604 0.5 16C0.5 7.43959 7.43959 0.5 16 0.5C24.5604 0.5 31.5 7.43959 31.5 16Z" stroke="#E5E5E5"/>
<path fill-rule="evenodd" clip-rule="evenodd" d="M16.2 18.4002C14.4327 18.4002 13 16.9675 13 15.2001C13 13.4327 14.4327 12 16.2 12C17.9673 12 19.4 13.4327 19.4 15.2001C19.4 16.9675 17.9673 18.4002 16.2 18.4002Z" fill="#262626"/>
<path fill-rule="evenodd" clip-rule="evenodd" d="M15.7438 23.4144C15.8372 23.4816 15.9496 23.5173 16.0647 23.5161C16.1797 23.5173 16.2922 23.4816 16.3855 23.4144C16.6516 23.2657 22.1294 19.5643 22.1294 15.0647C22.1294 13.4562 21.4904 11.9137 20.3531 10.7763C19.2157 9.63896 17.6731 9 16.0647 9C14.4562 9 12.9137 9.63896 11.7763 10.7763C10.639 11.9137 10 13.4562 10 15.0647C10 19.5643 15.5091 23.2657 15.7438 23.4144ZM18.2316 14.8308C18.2316 16.0276 17.2614 16.9978 16.0646 16.9978C14.8678 16.9978 13.8976 16.0276 13.8976 14.8308C13.8976 13.6339 14.8678 12.6637 16.0646 12.6637C17.2614 12.6637 18.2316 13.6339 18.2316 14.8308Z" fill="#FFFFFF"/>
</svg>
