<svg width="32" height="32" viewBox="0 0 32 32" fill="none" xmlns="http://www.w3.org/2000/svg">
<path d="M31.5 16C31.5 24.5604 24.5604 31.5 16 31.5C7.43959 31.5 0.5 24.5604 0.5 16C0.5 7.43959 7.43959 0.5 16 0.5C24.5604 0.5 31.5 7.43959 31.5 16Z" stroke="#E5E5E5"/>
<path fill-rule="evenodd" clip-rule="evenodd" d="M21.0538 14.6939C19.9378 14.6939 19.0332 13.7769 19.0332 12.6458C19.0332 11.5146 19.9378 10.5977 21.0538 10.5977C22.1697 10.5977 23.0743 11.5146 23.0743 12.6458C23.0743 13.7769 22.1697 14.6939 21.0538 14.6939Z" fill="#3A3A3A"/>
<path fill-rule="evenodd" clip-rule="evenodd" d="M16.5081 19.4011C16.7039 16.9573 18.6607 15.7148 21.0456 15.7148C23.4642 15.7148 25.4512 16.889 25.5992 19.4015C25.6051 19.5016 25.5992 19.8111 25.2198 19.8111C23.3479 19.8111 20.5664 19.8111 16.8753 19.8111C16.7486 19.8111 16.4975 19.5342 16.5081 19.4011Z" fill="#0DB3A8"/>
<path fill-rule="evenodd" clip-rule="evenodd" d="M10.9463 14.6939C9.83041 14.6939 8.92578 13.7769 8.92578 12.6458C8.92578 11.5146 9.83041 10.5977 10.9463 10.5977C12.0622 10.5977 12.9669 11.5146 12.9669 12.6458C12.9669 13.7769 12.0622 14.6939 10.9463 14.6939Z" fill="#3A3A3A"/>
<path fill-rule="evenodd" clip-rule="evenodd" d="M6.40072 19.4011C6.59651 16.9573 8.55324 15.7148 10.9382 15.7148C13.3567 15.7148 15.3438 16.889 15.4918 19.4015C15.4977 19.5016 15.4918 19.8111 15.1123 19.8111C13.2405 19.8111 10.459 19.8111 6.76788 19.8111C6.6412 19.8111 6.39005 19.5342 6.40072 19.4011Z" fill="#0DB3A8"/>
<path fill-rule="evenodd" clip-rule="evenodd" d="M16.0026 16.571C14.5148 16.571 13.3086 15.3484 13.3086 13.8402C13.3086 12.332 14.5148 11.1094 16.0026 11.1094C17.4905 11.1094 18.6966 12.332 18.6966 13.8402C18.6966 15.3484 17.4905 16.571 16.0026 16.571Z" fill="#3A3A3A"/>
<path fill-rule="evenodd" clip-rule="evenodd" d="M9.94185 22.8485C10.2029 19.5902 12.8118 17.9336 15.9917 17.9336C19.2164 17.9336 21.8658 19.4992 22.0631 22.849C22.071 22.9825 22.0631 23.3952 21.5572 23.3952C19.0614 23.3952 15.3528 23.3952 10.4314 23.3952C10.2625 23.3952 9.92763 23.026 9.94185 22.8485Z" fill="#0DB3A8"/>
</svg>
