<svg width="32" height="32" viewBox="0 0 32 32" fill="none" xmlns="http://www.w3.org/2000/svg">
<path d="M31.5 16C31.5 24.5604 24.5604 31.5 16 31.5C7.43959 31.5 0.5 24.5604 0.5 16C0.5 7.43959 7.43959 0.5 16 0.5C24.5604 0.5 31.5 7.43959 31.5 16Z" stroke="#E5E5E5"/>
<path fill-rule="evenodd" clip-rule="evenodd" d="M16 21.8C19.2033 21.8 21.8 19.2033 21.8 16C21.8 12.7967 19.2033 10.2 16 10.2C12.7967 10.2 10.2 12.7967 10.2 16C10.2 19.2033 12.7967 21.8 16 21.8ZM16 23C19.866 23 23 19.866 23 16C23 12.134 19.866 9 16 9C12.134 9 9 12.134 9 16C9 19.866 12.134 23 16 23Z" fill="#0DB3A8"/>
<path d="M18.0534 16.5058C18.3615 16.6277 18.5125 16.9764 18.3906 17.2845L18.3435 17.4036C18.2216 17.7117 17.873 17.8627 17.5649 17.7408L15.2976 16.8438C14.9895 16.7219 14.8385 16.3733 14.9604 16.0651L15.0075 15.9461C15.1294 15.6379 15.478 15.487 15.7861 15.6089L18.0534 16.5058Z" fill="#262626"/>
<path d="M16.9335 12.7053C17.1115 12.4258 17.4824 12.3435 17.7619 12.5216L17.8695 12.5901C18.149 12.7681 18.2312 13.139 18.0532 13.4185L16.0427 16.5747C15.8646 16.8542 15.4937 16.9365 15.2142 16.7584L15.1067 16.6899C14.8272 16.5119 14.7449 16.141 14.923 15.8615L16.9335 12.7053Z" fill="#262626"/>
</svg>
