<svg width="32" height="32" viewBox="0 0 32 32" fill="none" xmlns="http://www.w3.org/2000/svg">
<path d="M31.5 16C31.5 24.5604 24.5604 31.5 16 31.5C7.43959 31.5 0.5 24.5604 0.5 16C0.5 7.43959 7.43959 0.5 16 0.5C24.5604 0.5 31.5 7.43959 31.5 16Z" stroke="#E5E5E5"/>
<path d="M12.5328 12.2916C12.1239 12.4371 11.4916 12.231 11.2266 12.1097L11.3969 11.5034C12.0027 11.7945 12.3561 11.7055 12.4571 11.6247C13.1083 11.1395 13.9021 10.9913 14.2176 10.9778C14.937 10.9476 15.8962 11.4699 16.2054 11.726L15.5617 12.0693C15.0468 11.7136 14.489 11.6111 14.2744 11.6044C13.7141 11.5882 12.8799 12.0558 12.5328 12.2916Z" fill="#0DB3A8"/>
<path d="M9.82499 17.9313C9.67354 17.8909 9.48423 17.6079 9.29492 17.2845L9.78713 16.8398C9.89314 17.2764 10.1973 17.4934 10.3361 17.5473L9.82499 17.9313Z" fill="#0DB3A8"/>
<path d="M12.4759 11.987C12.1276 12.1649 11.4726 11.9129 11.1886 11.7647L9.56055 16.8381L10.0338 17.9094L16.4703 22.1541L17.0383 22.0531L17.398 21.6892L17.5683 21.0626L18.4959 20.9211L18.7988 20.2541L18.9124 19.6477H19.4804L20.124 19.3849L20.3133 18.7179L20.5783 18.2732L21.4492 18.3338L21.8089 17.8285V17.0806L21.3356 16.2721L17.6251 14.4125L16.0917 11.8657L15.5427 11.6837C15.3345 11.6029 14.8385 11.4089 14.5205 11.2796C14.1229 11.1179 12.9113 11.7647 12.4759 11.987Z" fill="#0DB3A8"/>
<path d="M11.1885 17.633C10.723 17.2683 10.0688 17.3755 9.72721 17.8725L9.09689 18.7895C8.7553 19.2865 8.8557 19.985 9.32114 20.3497V20.3497C9.78657 20.7144 10.4408 20.6072 10.7824 20.1103L11.4127 19.1933C11.7543 18.6963 11.6539 17.9978 11.1885 17.633V17.633Z" fill="#E1E1E1"/>
<path fill-rule="evenodd" clip-rule="evenodd" d="M9.58527 19.1722L10.2156 18.2552C10.3592 18.0462 10.6343 18.0011 10.83 18.1545C11.0257 18.3079 11.068 18.6016 10.9243 18.8106L10.294 19.7276C10.1504 19.9365 9.87527 19.9816 9.67956 19.8283C9.48385 19.6749 9.44163 19.3812 9.58527 19.1722ZM9.72721 17.8725C10.0688 17.3755 10.723 17.2683 11.1885 17.633C11.6539 17.9978 11.7543 18.6963 11.4127 19.1933L10.7824 20.1103C10.4408 20.6072 9.78657 20.7144 9.32114 20.3497C8.8557 19.985 8.7553 19.2865 9.09689 18.7895L9.72721 17.8725Z" fill="#E1E1E1"/>
<path d="M12.4892 19.133C12.0346 18.7144 11.3482 18.7685 10.9561 19.254L10.3679 19.9822C9.9758 20.4676 10.0265 21.2005 10.4812 21.6192V21.6192C10.9358 22.0378 11.6222 21.9837 12.0143 21.4982L12.6025 20.77C12.9946 20.2846 12.9439 19.5517 12.4892 19.133V19.133Z" fill="#E1E1E1"/>
<path fill-rule="evenodd" clip-rule="evenodd" d="M10.8266 20.4046L11.4148 19.6764C11.5884 19.4615 11.8923 19.4375 12.0936 19.6228C12.2949 19.8082 12.3173 20.1327 12.1437 20.3476L11.5556 21.0758C11.382 21.2907 11.0781 21.3147 10.8768 21.1293C10.6755 20.944 10.6531 20.6195 10.8266 20.4046ZM10.9561 19.254C11.3482 18.7685 12.0346 18.7144 12.4892 19.133C12.9439 19.5517 12.9946 20.2846 12.6025 20.77L12.0143 21.4982C11.6222 21.9837 10.9358 22.0378 10.4812 21.6192C10.0265 21.2005 9.9758 20.4676 10.3679 19.9822L10.9561 19.254Z" fill="#E1E1E1"/>
<path d="M14.1875 19.5541C13.6935 19.1273 12.9689 19.2089 12.5691 19.7364L12.094 20.3634C11.6942 20.8909 11.7706 21.6646 12.2647 22.0914V22.0914C12.7588 22.5183 13.4833 22.4367 13.8831 21.9091L14.3583 21.2821C14.758 20.7546 14.6816 19.9809 14.1875 19.5541V19.5541Z" fill="#E1E1E1"/>
<path fill-rule="evenodd" clip-rule="evenodd" d="M12.5649 20.7703L13.0401 20.1433C13.2294 19.8935 13.5725 19.8548 13.8065 20.0569C14.0404 20.2591 14.0766 20.6254 13.8873 20.8753L13.4122 21.5023C13.2229 21.7521 12.8797 21.7907 12.6458 21.5886C12.4118 21.3865 12.3756 21.0201 12.5649 20.7703ZM12.5691 19.7364C12.9689 19.2089 13.6935 19.1273 14.1875 19.5541C14.6816 19.9809 14.758 20.7546 14.3583 21.2821L13.8831 21.9091C13.4833 22.4367 12.7588 22.5183 12.2647 22.0914C11.7706 21.6646 11.6942 20.8909 12.094 20.3634L12.5691 19.7364Z" fill="#E1E1E1"/>
<path d="M15.6305 20.1589C15.2111 19.8101 14.6063 19.8904 14.2796 20.3382L13.8514 20.9253C13.5248 21.3731 13.6 22.0189 14.0194 22.3677V22.3677C14.4388 22.7165 15.0437 22.6362 15.3703 22.1883L15.7985 21.6013C16.1252 21.1535 16.05 20.5077 15.6305 20.1589V20.1589Z" fill="#E1E1E1"/>
<path fill-rule="evenodd" clip-rule="evenodd" d="M14.3294 21.3227L14.7576 20.7357C14.8786 20.5697 15.1028 20.5399 15.2583 20.6692C15.4138 20.7985 15.4417 21.0378 15.3206 21.2039L14.8924 21.7909C14.7713 21.9569 14.5471 21.9867 14.3916 21.8574C14.2362 21.7281 14.2083 21.4887 14.3294 21.3227ZM14.2796 20.3382C14.6063 19.8904 15.2111 19.8101 15.6305 20.1589C16.05 20.5077 16.1252 21.1535 15.7985 21.6013L15.3703 22.1883C15.0437 22.6362 14.4388 22.7165 14.0194 22.3677C13.6 22.0189 13.5248 21.3731 13.8514 20.9253L14.2796 20.3382Z" fill="#E1E1E1"/>
<path d="M14.3871 12.9786L13.043 14.3127V14.7776L13.5352 15.4244L14.1788 15.3031L16.8859 14.535L17.681 14.3127L18.7412 14.8988L20.5585 15.6871L21.9026 16.9808L22.3381 16.7989L22.2055 16.051L21.0697 12.635L20.6532 12.0286L20.445 12.1903L19.5552 12.0286L18.2679 11.6445H17.1131L16.0341 12.0286L14.3871 12.9786Z" fill="#E1E1E1"/>
<path d="M19.4224 11.8286C19.8161 11.9417 20.3058 11.7544 20.5014 11.6466L20.7097 12.2126C20.1796 12.5037 19.5044 12.4821 19.2331 12.4349C18.915 12.1277 18.2045 11.8757 17.889 11.7881C17.6921 11.7234 17.4031 11.7612 17.2832 11.7881C15.4507 12.2409 13.8945 13.6343 13.3455 14.2945C13.2698 14.3592 13.2635 14.4428 13.2698 14.4562C13.3304 14.715 13.6106 15.0222 13.7431 15.1435C13.9248 15.2082 14.0839 15.1704 14.1407 15.1435L17.2264 14.052C17.4081 14.0196 17.5419 14.0385 17.5861 14.052C18.8431 14.3431 20.4573 15.3591 21.1072 15.8307C21.8796 16.2997 22.1863 16.9155 22.2431 17.1648C22.2809 17.2996 22.2734 17.6944 21.9402 18.1957C21.607 18.6969 20.9684 18.6606 20.6907 18.5797C20.7513 18.9193 20.5519 19.3276 20.4446 19.4893C20.0812 20.0391 19.4855 20.0283 19.2331 19.9542C19.2394 20.1294 19.1838 20.5768 18.9112 20.9649C18.6386 21.3529 18.0909 21.3826 17.8511 21.3489C17.8132 21.6049 17.6467 22.1696 17.2832 22.3798C16.9197 22.59 16.589 22.5347 16.4692 22.4808L15.4658 21.9149L15.7876 21.4095C15.9265 21.4904 16.2761 21.6925 16.5638 21.8542C16.8516 22.0159 17.0623 21.8003 17.1317 21.6723C17.3438 21.3812 17.1444 21.0794 17.0181 20.9649C16.6963 20.7695 16.0186 20.3585 15.8823 20.2776C15.746 20.1968 15.8255 20.0014 15.8823 19.9138C15.9883 19.7197 16.1536 19.7655 16.2231 19.8127C16.5827 20.0148 17.3968 20.4717 17.7754 20.6819C18.154 20.8921 18.4632 20.5539 18.5705 20.3585C18.8128 19.938 18.4821 19.5904 18.2865 19.4691L17.2075 18.8223C17.157 18.7886 17.0863 18.6686 17.2075 18.4584C17.3286 18.2482 17.5356 18.3169 17.6239 18.3776L19.4981 19.368C19.5801 19.395 19.801 19.3599 20.0282 19.0042C20.2553 18.6484 20.0471 18.3169 19.9146 18.1957L18.0593 17.0839C18.0215 17.0233 17.9723 16.8656 18.0783 16.7201C18.1843 16.5746 18.3244 16.5786 18.3812 16.5988L20.7665 17.9531C20.9242 18.034 21.3041 18.0946 21.5616 17.6903C21.819 17.2861 21.3786 16.7942 21.1262 16.5988C19.5928 15.3658 17.5861 14.6988 17.5293 14.6786C17.4838 14.6624 17.422 14.6719 17.3968 14.6786L14.5003 15.6892C14.046 15.8509 13.6421 15.7566 13.497 15.6892C12.8609 15.3335 12.6072 14.335 12.664 14.2137C13.4818 13.0979 14.7275 12.2598 15.2576 11.97C15.9845 11.4364 17.1254 11.1817 17.605 11.1211C18.3925 11.1211 19.1447 11.5927 19.4224 11.8286Z" fill="#E1E1E1"/>
<path d="M11.7089 11.1503C11.8513 10.6833 11.6122 10.1814 11.1748 10.0293L9.00948 9.27636C8.57206 9.12426 8.10198 9.37957 7.95953 9.84662L6.25778 15.4259C6.11533 15.893 6.35444 16.3949 6.79186 16.547L8.95716 17.2999C9.39458 17.452 9.86466 17.1967 10.0071 16.7297L11.7089 11.1503Z" fill="#262626"/>
<path d="M20.2911 11.1503C20.1487 10.6833 20.3878 10.1814 20.8252 10.0293L22.9905 9.27636C23.4279 9.12426 23.898 9.37957 24.0405 9.84662L25.7422 15.4259C25.8847 15.893 25.6456 16.3949 25.2081 16.547L23.0428 17.2999C22.6054 17.452 22.1353 17.1967 21.9929 16.7297L20.2911 11.1503Z" fill="#262626"/>
</svg>
