<svg width="32" height="32" viewBox="0 0 32 32" fill="none" xmlns="http://www.w3.org/2000/svg">
<path d="M31.5 16C31.5 24.5604 24.5604 31.5 16 31.5C7.43959 31.5 0.5 24.5604 0.5 16C0.5 7.43959 7.43959 0.5 16 0.5C24.5604 0.5 31.5 7.43959 31.5 16Z" stroke="#E5E5E5"/>
<path fill-rule="evenodd" clip-rule="evenodd" d="M15.9988 14.1971C14.2315 14.1971 12.7988 12.7644 12.7988 10.997C12.7988 9.22962 14.2315 7.79688 15.9988 7.79688C17.7661 7.79688 19.1988 9.22962 19.1988 10.997C19.1988 12.7644 17.7661 14.1971 15.9988 14.1971Z" fill="#3A3A3A"/>
<path fill-rule="evenodd" clip-rule="evenodd" d="M14.6122 15.8898L16.0014 19.1981L17.3918 15.8867C20.5612 16.2927 22.9941 18.1266 23.1991 21.5599C23.2085 21.7163 23.1991 22.1999 22.5981 22.1999H9.38278C9.18215 22.1999 8.78441 21.7672 8.8013 21.5592C9.07278 18.2163 11.4819 16.3122 14.6122 15.8898Z" fill="#0DB3A8"/>
</svg>
