<svg width="16" height="16" viewBox="0 0 16 16" fill="none" xmlns="http://www.w3.org/2000/svg">
<path fill-rule="evenodd" clip-rule="evenodd" d="M3.33333 6.66797C2.6 6.66797 2 7.26797 2 8.0013C2 8.73464 2.6 9.33464 3.33333 9.33464C4.06667 9.33464 4.66667 8.73464 4.66667 8.0013C4.66667 7.26797 4.06667 6.66797 3.33333 6.66797ZM12.6667 6.66797C11.9333 6.66797 11.3333 7.26797 11.3333 8.0013C11.3333 8.73464 11.9333 9.33464 12.6667 9.33464C13.4 9.33464 14 8.73464 14 8.0013C14 7.26797 13.4 6.66797 12.6667 6.66797ZM6.66667 8.0013C6.66667 7.26797 7.26667 6.66797 8 6.66797C8.73333 6.66797 9.33333 7.26797 9.33333 8.0013C9.33333 8.73464 8.73333 9.33464 8 9.33464C7.26667 9.33464 6.66667 8.73464 6.66667 8.0013Z" fill="#1F1F1F" fill-opacity="0.88"/>
</svg>
