<svg width="44" height="44" viewBox="0 0 44 44" fill="none" xmlns="http://www.w3.org/2000/svg">
<path fill-rule="evenodd" clip-rule="evenodd" d="M25.6133 5.30667H11.8C10.9753 5.30667 10.3067 5.97525 10.3067 6.8V36.2C10.3067 37.0247 10.9753 37.6933 11.8 37.6933H31.4933C32.3181 37.6933 32.9867 37.0247 32.9867 36.2V12.96H28.6C26.9505 12.96 25.6133 11.6228 25.6133 9.97333V5.30667ZM11.8 4C10.2536 4 9 5.2536 9 6.8V36.2C9 37.7464 10.2536 39 11.8 39H31.4933C33.0397 39 34.2933 37.7464 34.2933 36.2V11.6533H28.6C27.6722 11.6533 26.92 10.9012 26.92 9.97333V4H11.8Z" fill="black"/>
<path d="M34.2933 11.6533L26.9199 4H26.2666V5.49333L32.4733 11.6533H34.2933Z" fill="#3FA9B8"/>
<path fill-rule="evenodd" clip-rule="evenodd" d="M11.8 4H26.92V9.97333C26.92 10.9012 27.6722 11.6533 28.6 11.6533H34.2933V36.2C34.2933 37.7464 33.0397 39 31.4933 39H11.8C10.2536 39 9 37.7464 9 36.2V6.8C9 5.2536 10.2536 4 11.8 4ZM14.4598 9.22656C14.0732 9.22656 13.7598 9.53996 13.7598 9.92656C13.7598 10.3132 14.0732 10.6266 14.4598 10.6266H21.5531C21.9397 10.6266 22.2531 10.3132 22.2531 9.92656C22.2531 9.53996 21.9397 9.22656 21.5531 9.22656H14.4598ZM13.7598 32.7933C13.7598 32.4067 14.0732 32.0933 14.4598 32.0933H21.5531C21.9397 32.0933 22.2531 32.4067 22.2531 32.7933C22.2531 33.1799 21.9397 33.4933 21.5531 33.4933H14.4598C14.0732 33.4933 13.7598 33.1799 13.7598 32.7933ZM14.4598 14.9199C14.0732 14.9199 13.7598 15.2333 13.7598 15.6199C13.7598 16.0065 14.0732 16.3199 14.4598 16.3199H22.6731C23.0597 16.3199 23.3731 16.0065 23.3731 15.6199C23.3731 15.2333 23.0597 14.9199 22.6731 14.9199H14.4598ZM13.7598 21.4065C13.7598 21.0199 14.0732 20.7065 14.4598 20.7065H18.2864C18.673 20.7065 18.9864 21.0199 18.9864 21.4065C18.9864 21.7931 18.673 22.1065 18.2864 22.1065H14.4598C14.0732 22.1065 13.7598 21.7931 13.7598 21.4065ZM14.4598 26.3999C14.0732 26.3999 13.7598 26.7133 13.7598 27.0999C13.7598 27.4865 14.0732 27.7999 14.4598 27.7999H18.2864C18.673 27.7999 18.9864 27.4865 18.9864 27.0999C18.9864 26.7133 18.673 26.3999 18.2864 26.3999H14.4598Z" fill="#3FA9B8"/>
</svg>
