<svg width="20" height="20" viewBox="0 0 20 20" fill="none" xmlns="http://www.w3.org/2000/svg">
<path fill-rule="evenodd" clip-rule="evenodd" d="M7.9439 11.9357C8.5127 12.434 9.24326 12.7085 9.99945 12.708C10.7556 12.7085 11.4862 12.434 12.055 11.9357C12.6238 11.4374 12.992 10.7493 13.0911 9.99967H16.0411V14.3997C16.0411 14.6759 15.9314 14.9409 15.736 15.1362C15.5407 15.3316 15.2757 15.4413 14.9994 15.4413H4.99945C4.86052 15.4414 4.72299 15.4136 4.59496 15.3597C4.46692 15.3058 4.35096 15.2269 4.25389 15.1275C4.15683 15.0281 4.08063 14.9103 4.02978 14.781C3.97892 14.6517 3.95444 14.5136 3.95778 14.3747V9.99967H6.90778C7.00685 10.7493 7.3751 11.4374 7.9439 11.9357ZM2.70778 9.45082C2.704 9.42001 2.7025 9.38885 2.70336 9.35759C2.70643 9.24546 2.73962 9.13622 2.79945 9.04134L5.90778 4.04134C6.0354 3.81813 6.22168 3.63412 6.44644 3.50926C6.67119 3.3844 6.92584 3.32344 7.18278 3.33301H12.8161C13.0907 3.33376 13.3595 3.41249 13.5911 3.56001C13.8227 3.70754 14.0077 3.9178 14.1244 4.16634L17.0903 8.9407C17.0963 8.94625 17.1022 8.95193 17.1081 8.95774C17.2253 9.07495 17.2911 9.23392 17.2911 9.39968V14.3997C17.2845 15.0031 17.0402 15.5796 16.6111 16.004C16.1821 16.4284 15.6029 16.6664 14.9994 16.6663H4.99945C4.6985 16.6663 4.4005 16.6071 4.12246 16.4919C3.84442 16.3767 3.59179 16.2079 3.37899 15.9951C3.16619 15.7823 2.99739 15.5297 2.88222 15.2517C2.76705 14.9736 2.70778 14.6756 2.70778 14.3747V9.45082ZM7.49945 8.77467H4.45778L6.99111 4.67467C7.01006 4.64016 7.03773 4.61122 7.07136 4.59074C7.105 4.57027 7.14342 4.55898 7.18278 4.55801H12.8244C12.9078 4.55801 12.9744 4.60801 13.0411 4.72467L15.5411 8.77467H12.4994C12.3337 8.77467 12.1747 8.84052 12.0575 8.95773C11.9403 9.07494 11.8744 9.23391 11.8744 9.39967V9.58301C11.8744 10.0803 11.6769 10.5572 11.3253 10.9088C10.9736 11.2605 10.4967 11.458 9.99945 11.458C9.50217 11.458 9.02525 11.2605 8.67362 10.9088C8.32199 10.5572 8.12445 10.0803 8.12445 9.58301V9.39967C8.12445 9.23391 8.0586 9.07494 7.94139 8.95773C7.82418 8.84052 7.66521 8.77467 7.49945 8.77467Z" fill="#0DB3A8"/>
</svg>
