<svg width="20" height="20" viewBox="0 0 20 20" fill="none" xmlns="http://www.w3.org/2000/svg">
<path fill-rule="evenodd" clip-rule="evenodd" d="M9.65768 17.6C9.75712 17.6716 9.87683 17.7095 9.99935 17.7083C10.1219 17.7095 10.2416 17.6716 10.341 17.6C10.6243 17.4417 16.4577 13.5 16.4577 8.70833C16.4577 6.99548 15.7773 5.35277 14.5661 4.1416C13.3549 2.93043 11.7122 2.25 9.99935 2.25C8.28649 2.25 6.64379 2.93043 5.43262 4.1416C4.22145 5.35277 3.54102 6.99548 3.54102 8.70833C3.54102 13.5 9.40768 17.4417 9.65768 17.6ZM6.32633 5.04753C7.30285 4.07883 8.62387 3.53724 9.99935 3.54167C11.3748 3.53724 12.6959 4.07883 13.6724 5.04753C14.6489 6.01623 15.2011 7.33286 15.2077 8.70833C15.2077 12.2167 11.216 15.425 9.99935 16.3167C8.78268 15.425 4.79102 12.2167 4.79102 8.70833C4.79763 7.33286 5.34982 6.01623 6.32633 5.04753ZM8.72617 10.2388C9.10303 10.4906 9.5461 10.625 9.99935 10.625C10.6071 10.625 11.19 10.3836 11.6198 9.95379C12.0496 9.52402 12.291 8.94112 12.291 8.33334C12.291 7.88009 12.1566 7.43702 11.9048 7.06016C11.653 6.68329 11.2951 6.38956 10.8763 6.21611C10.4576 6.04266 9.99681 5.99728 9.55227 6.0857C9.10773 6.17413 8.69939 6.39239 8.3789 6.71288C8.0584 7.03338 7.84014 7.44172 7.75172 7.88626C7.66329 8.33079 7.70868 8.79157 7.88213 9.21032C8.05558 9.62907 8.34931 9.98698 8.72617 10.2388ZM9.42063 7.46722C9.59193 7.35276 9.79333 7.29167 9.99935 7.29167C10.2756 7.29167 10.5406 7.40142 10.7359 7.59677C10.9313 7.79212 11.041 8.05707 11.041 8.33334C11.041 8.53936 10.9799 8.74075 10.8655 8.91206C10.751 9.08336 10.5883 9.21687 10.398 9.29571C10.2076 9.37455 9.99819 9.39518 9.79613 9.35499C9.59407 9.3148 9.40846 9.21559 9.26278 9.06991C9.1171 8.92423 9.01789 8.73862 8.9777 8.53656C8.93751 8.33449 8.95813 8.12505 9.03698 7.93471C9.11582 7.74437 9.24933 7.58168 9.42063 7.46722Z" fill="#0DB3A8"/>
</svg>
