<svg width="20" height="20" viewBox="0 0 20 20" fill="none" xmlns="http://www.w3.org/2000/svg">
<path d="M15.9147 18H15.7035C13.3239 17.7421 11.0377 16.9339 9.02719 15.6398C7.15945 14.4548 5.57366 12.8782 4.38039 11.02C3.07832 9.012 2.26684 6.72793 2.01107 4.35106C1.98182 4.06756 2.01069 3.78109 2.09594 3.50904C2.18118 3.23699 2.32102 2.98503 2.50697 2.76844C2.68783 2.54895 2.91106 2.36784 3.16345 2.23585C3.41584 2.10385 3.69225 2.02366 3.97632 2H6.364C6.88113 2.00052 7.38103 2.18522 7.77343 2.52074C8.16582 2.85627 8.42485 3.32051 8.50374 3.82962C8.59093 4.48359 8.75427 5.12523 8.99046 5.74157C9.13412 6.12888 9.16377 6.54901 9.07592 6.95253C8.98807 7.35606 8.78638 7.72621 8.49455 8.01944L7.93437 8.57747C8.81636 9.96451 9.99945 11.1368 11.3965 12.008L11.9567 11.4591C12.2511 11.1684 12.6226 10.9675 13.0277 10.88C13.4328 10.7925 13.8546 10.822 14.2434 10.9651C14.8628 11.1982 15.5066 11.3609 16.1627 11.45C16.6825 11.5278 17.1559 11.792 17.4941 12.1928C17.8323 12.5937 18.0119 13.1037 17.9994 13.6272V15.8228C17.9994 16.3938 17.7723 16.9415 17.3678 17.3461C16.9634 17.7508 16.4145 17.9793 15.8413 17.9817L15.9147 18ZM6.364 3.36306H4.16917C4.0614 3.37016 3.95619 3.39895 3.85991 3.4477C3.76363 3.49644 3.67826 3.56412 3.60898 3.64666C3.54155 3.72397 3.49051 3.81407 3.45895 3.91155C3.42738 4.00902 3.41594 4.11184 3.42531 4.21384C3.648 6.36984 4.37452 8.44391 5.54668 10.2699C6.62723 11.9592 8.06598 13.3924 9.76186 14.4688C11.596 15.6488 13.6804 16.3879 15.8505 16.6278C15.9633 16.6341 16.0763 16.6171 16.1822 16.5777C16.2881 16.5383 16.3846 16.4775 16.4658 16.3991C16.612 16.2497 16.6943 16.0497 16.6953 15.8411V13.6547C16.6995 13.4621 16.6326 13.2748 16.5073 13.1281C16.3821 12.9814 16.2072 12.8856 16.0158 12.8588C15.2571 12.7572 14.5118 12.5731 13.7934 12.3099C13.6518 12.2572 13.4982 12.2455 13.3503 12.2763C13.2024 12.3071 13.0662 12.379 12.9577 12.4837L12.0394 13.3985C11.9318 13.503 11.7933 13.5701 11.6444 13.5899C11.4955 13.6096 11.3441 13.581 11.2128 13.5083C9.25327 12.4052 7.63128 10.7926 6.52012 8.84277C6.44406 8.71284 6.41361 8.56138 6.43356 8.41229C6.45352 8.2632 6.52275 8.12498 6.63032 8.01944L7.54866 7.10463C7.65398 6.99854 7.72643 6.8645 7.75736 6.71851C7.7883 6.57252 7.77642 6.42075 7.72315 6.2813C7.45792 5.56591 7.27312 4.82343 7.17214 4.06747C7.14936 3.87103 7.05398 3.69007 6.90458 3.55985C6.75519 3.42964 6.56248 3.35948 6.364 3.36306Z" fill="#0DB3A8"/>
</svg>
