<svg width="44" height="44" viewBox="0 0 44 44" fill="none" xmlns="http://www.w3.org/2000/svg">
<circle cx="22" cy="22" r="22" fill="white"/>
<path fill-rule="evenodd" clip-rule="evenodd" d="M12 20.1289V23.7411L22 28.4213V24.8091L12 20.1289Z" fill="#F9C461"/>
<path fill-rule="evenodd" clip-rule="evenodd" d="M12 25.707V29.3192L22 33.9994V30.3872L12 25.707Z" fill="#F9C461"/>
<path fill-rule="evenodd" clip-rule="evenodd" d="M22 28.4213L32 23.7411V20.1289L22 24.8091V28.4213Z" fill="#EEA925"/>
<path fill-rule="evenodd" clip-rule="evenodd" d="M22 33.9994L32 29.3192V25.707L22 30.3872V33.9994Z" fill="#EEA925"/>
<path fill-rule="evenodd" clip-rule="evenodd" d="M32 18.2924V14.6802L22 10V13.6122L32 18.2924Z" fill="#ED9E09"/>
<path fill-rule="evenodd" clip-rule="evenodd" d="M22 10L12 14.6802V18.2924L22 13.6122V10Z" fill="#EEA925"/>
<path fill-rule="evenodd" clip-rule="evenodd" d="M12 14.6445V18.2687L22 22.9489V19.3248L12 14.6445Z" fill="#F9C461"/>
<path fill-rule="evenodd" clip-rule="evenodd" d="M22 22.9489L32 18.2687V14.6445L22 19.3248V22.9489Z" fill="#EEA925"/>
</svg>
