<svg width="15" height="15" viewBox="0 0 15 15" fill="none" xmlns="http://www.w3.org/2000/svg">
<path d="M7.5 0C3.3645 0 0 3.3645 0 7.5C0 11.6355 3.3645 15 7.5 15C11.6355 15 15 11.6355 15 7.5C15 3.3645 11.6355 0 7.5 0ZM13.4482 6.75H11.3752C11.2827 5.10843 10.8235 3.50847 10.0312 2.06775C10.9494 2.49679 11.7441 3.15105 12.3416 3.96968C12.939 4.78832 13.3197 5.74474 13.4482 6.75ZM7.8975 1.52025C8.67375 2.54325 9.71775 4.35525 9.86775 6.75H5.2725C5.37675 4.803 6.018 2.979 7.11075 1.5195C7.23975 1.512 7.36875 1.5 7.5 1.5C7.63425 1.5 7.7655 1.512 7.8975 1.52025ZM5.016 2.04525C4.278 3.4635 3.852 5.0715 3.7725 6.75H1.55175C1.68133 5.73588 2.06748 4.77158 2.67367 3.94831C3.27986 3.12505 4.08606 2.47004 5.016 2.04525ZM1.55175 8.25H3.78225C3.88425 10.0343 4.281 11.6085 4.94925 12.9225C4.03589 12.492 3.2458 11.8381 2.65197 11.0215C2.05814 10.2048 1.67975 9.2516 1.55175 8.25ZM7.0875 13.4797C6.03675 12.2062 5.4165 10.422 5.28075 8.25H9.8655C9.7095 10.3298 9.02775 12.147 7.91325 13.479C7.77675 13.488 7.64025 13.5 7.5 13.5C7.3605 13.5 7.22475 13.488 7.0875 13.4797ZM10.0958 12.9008C10.812 11.5553 11.2493 9.975 11.364 8.25H13.4475C13.3209 9.24321 12.948 10.189 12.3626 11.0013C11.7772 11.8135 10.9979 12.4665 10.0958 12.9008Z" fill="#EEA925"/>
</svg>
