<svg width="24" height="24" viewBox="0 0 24 24" fill="none" xmlns="http://www.w3.org/2000/svg">
<path fill-rule="evenodd" clip-rule="evenodd" d="M1.00687 11.177C1.00128 11.1312 0.999074 11.0848 1.00035 11.0383C1.00498 10.8701 1.05503 10.7063 1.14526 10.564L5.83291 3.06396C6.02537 2.72916 6.3063 2.45314 6.64525 2.26584C6.98421 2.07855 7.36824 1.98711 7.75572 2.00146H16.2513C16.6654 2.0026 17.0707 2.12068 17.42 2.34197C17.7693 2.56326 18.0483 2.87866 18.2244 3.25146L22.6953 10.4099C22.7049 10.4187 22.7144 10.4278 22.7238 10.4371C22.9005 10.6129 22.9999 10.8514 22.9999 11.1V18.6C22.9899 19.5052 22.6214 20.3699 21.9744 21.0065C21.3273 21.643 20.4539 22.0001 19.5438 22H4.46291C4.00906 22 3.55965 21.9111 3.14034 21.7383C2.72104 21.5656 2.34005 21.3124 2.01912 20.9932C1.6982 20.674 1.44363 20.295 1.26995 19.878C1.09627 19.4609 1.00687 19.0139 1.00687 18.5625V11.177ZM8.23328 10.164H3.64618L7.46667 4.01396C7.49524 3.96219 7.53698 3.91878 7.5877 3.88807C7.63842 3.85736 7.69636 3.84043 7.75572 3.83896H16.2639C16.3895 3.83896 16.4901 3.91396 16.5906 4.08896L20.3608 10.164H15.7737C15.5238 10.164 15.284 10.2627 15.1072 10.4386C14.9305 10.6144 14.8312 10.8528 14.8312 11.1015V11.3765C14.8312 12.1224 14.5333 12.8378 14.003 13.3652C13.4727 13.8926 12.7535 14.189 12.0035 14.189C11.2536 14.189 10.5343 13.8926 10.004 13.3652C9.47375 12.8378 9.17584 12.1224 9.17584 11.3765V11.1015C9.17584 10.8528 9.07653 10.6144 8.89977 10.4386C8.72301 10.2627 8.48326 10.164 8.23328 10.164Z" fill="white"/>
</svg>
