<svg width="52" height="52" viewBox="0 0 52 52" fill="none" xmlns="http://www.w3.org/2000/svg">
<path d="M34.1508 27.5625L32.4841 25.4792C32.406 25.3816 32.3069 25.3029 32.1943 25.2488C32.0816 25.1947 31.9582 25.1666 31.8333 25.1667H26.8333V23.5H31.8333C32.7524 23.5 33.4999 22.7525 33.4999 21.8333V19.3333C33.4999 18.4142 32.7524 17.6667 31.8333 17.6667H20.1666C20.0416 17.6666 19.9182 17.6947 19.8056 17.7488C19.6929 17.8029 19.5939 17.8816 19.5157 17.9792L17.8491 20.0625C17.7309 20.2104 17.6665 20.394 17.6665 20.5833C17.6665 20.7726 17.7309 20.9563 17.8491 21.1042L19.5157 23.1875C19.5939 23.285 19.6929 23.3638 19.8056 23.4179C19.9182 23.472 20.0416 23.5 20.1666 23.5H25.1666V25.1667H20.1666C19.2474 25.1667 18.4999 25.9142 18.4999 26.8333V29.3333C18.4999 30.2525 19.2474 31 20.1666 31H25.1666V34.3333H26.8333V31H31.8333C31.9582 31 32.0816 30.972 32.1943 30.9179C32.3069 30.8638 32.406 30.785 32.4841 30.6875L34.1508 28.6042C34.2689 28.4563 34.3333 28.2726 34.3333 28.0833C34.3333 27.894 34.2689 27.7104 34.1508 27.5625ZM19.5674 20.5833L20.5666 19.3333H31.8333L31.8349 21.8333H20.5666L19.5674 20.5833ZM31.4333 29.3333H20.1666V26.8333H31.4333L32.4333 28.0833L31.4333 29.3333Z" fill="#292929"/>
<rect x="0.5" y="0.5" width="51" height="51" rx="25.5" stroke="#D2D5DA"/>
</svg>
