<svg width="24" height="24" viewBox="0 0 24 24" fill="none" xmlns="http://www.w3.org/2000/svg">
<path fill-rule="evenodd" clip-rule="evenodd" d="M11.5768 21.8598C11.6999 21.9524 11.8482 22.0015 12 22C12.1518 22.0015 12.3001 21.9524 12.4232 21.8598C12.7742 21.655 20 16.5552 20 10.3558C20 8.13969 19.1571 6.01436 17.6569 4.44735C16.1566 2.88034 14.1217 2 12 2C9.87827 2 7.84344 2.88034 6.34315 4.44735C4.84285 6.01436 4 8.13969 4 10.3558C4 16.5552 11.2671 21.655 11.5768 21.8598ZM10.3333 12.4944C10.8266 12.8241 11.4067 13 12 13C12.7956 13 13.5587 12.6839 14.1213 12.1213C14.6839 11.5587 15 10.7956 15 10C15 9.40666 14.8241 8.82664 14.4944 8.33329C14.1648 7.83994 13.6962 7.45543 13.1481 7.22836C12.5999 7.0013 11.9967 6.94189 11.4147 7.05765C10.8328 7.1734 10.2982 7.45912 9.87868 7.87868C9.45912 8.29824 9.1734 8.83279 9.05765 9.41473C8.94189 9.99667 9.0013 10.5999 9.22836 11.1481C9.45543 11.6962 9.83994 12.1648 10.3333 12.4944Z" fill="white"/>
</svg>
