<svg width="44" height="44" viewBox="0 0 44 44" fill="none" xmlns="http://www.w3.org/2000/svg">
<circle cx="22" cy="22" r="22" fill="white"/>
<g opacity="0.6">
<rect x="14" y="11" width="20" height="16" rx="1" fill="#FF9900"/>
<rect x="25" y="12" width="8" height="2" rx="1" fill="white"/>
<path d="M14 15H34V26C34 26.5523 33.5523 27 33 27H15C14.4477 27 14 26.5523 14 26V15Z" fill="#FFCB7D"/>
</g>
<rect x="11" y="17" width="20" height="16" rx="1" fill="#FF9900"/>
<rect x="22" y="18" width="8" height="2" rx="1" fill="white"/>
<path d="M11 21H31V32C31 32.5523 30.5523 33 30 33H12C11.4477 33 11 32.5523 11 32V21Z" fill="#FFCB7D"/>
</svg>
