<svg width="44" height="44" viewBox="0 0 44 44" fill="none" xmlns="http://www.w3.org/2000/svg">
<circle cx="22" cy="22" r="22" fill="white"/>
<path fill-rule="evenodd" clip-rule="evenodd" d="M12 16.0005L22.0058 10L32 16.0005V27.6655L28.157 24.4012H15.8546L12 27.6055V16.0005ZM26.622 18.0047C26.622 17.0553 26.3513 16.1272 25.8441 15.3377C25.3368 14.5483 24.6159 13.933 23.7723 13.5697C22.9288 13.2064 22.0006 13.1113 21.1052 13.2965C20.2097 13.4817 19.3872 13.9389 18.7416 14.6103C18.096 15.2816 17.6563 16.137 17.4782 17.0682C17.3001 17.9994 17.3915 18.9646 17.7409 19.8417C18.0903 20.7189 18.682 21.4686 19.4411 21.9961C20.2002 22.5236 21.0928 22.8051 22.0058 22.8051C23.2301 22.8051 24.4042 22.2994 25.27 21.3991C26.1357 20.4988 26.622 19.2778 26.622 18.0047ZM25.0871 18.0047C25.0871 18.6384 24.9064 19.258 24.5678 19.7849C24.2292 20.3118 23.748 20.7225 23.185 20.9651C22.6219 21.2076 22.0024 21.271 21.4046 21.1474C20.8069 21.0238 20.2579 20.7186 19.8269 20.2705C19.396 19.8223 19.1025 19.2514 18.9836 18.6298C18.8647 18.0082 18.9257 17.364 19.159 16.7785C19.3922 16.193 19.7871 15.6925 20.2939 15.3404C20.8006 14.9883 21.3963 14.8004 22.0058 14.8004C22.823 14.8004 23.6068 15.138 24.1846 15.7389C24.7625 16.3398 25.0871 17.1549 25.0871 18.0047Z" fill="#669DF6"/>
<path fill-rule="evenodd" clip-rule="evenodd" d="M22.0059 22.8051C23.2302 22.8051 24.4043 22.2994 25.2701 21.3991C26.1358 20.4988 26.6221 19.2778 26.6221 18.0047C26.6221 16.7315 26.1358 15.5105 25.2701 14.6103C24.4043 13.71 23.2302 13.2043 22.0059 13.2043V10L32.0001 16.0005V27.6655L28.157 24.4012H22.0059V22.8051ZM25.0872 18.0047C25.0781 18.8483 24.7494 19.6541 24.1726 20.2472C23.5957 20.8404 22.8171 21.173 22.0059 21.173V14.8004C22.8211 14.8004 23.6031 15.1364 24.1806 15.7347C24.7582 16.333 25.0842 17.1449 25.0872 17.9927V18.0047Z" fill="#2C69CF"/>
<path fill-rule="evenodd" clip-rule="evenodd" d="M12.7734 29.2004L22.006 34.0008L31.2385 29.2004L27.3955 25.9961H16.6165L12.7734 29.2004Z" fill="#669DF6"/>
<path fill-rule="evenodd" clip-rule="evenodd" d="M22.0059 34.0008L31.2384 29.2004L27.3954 25.9961H22.0059V34.0008Z" fill="#2C69CF"/>
</svg>
