<svg width="24" height="24" viewBox="0 0 24 24" fill="none" xmlns="http://www.w3.org/2000/svg">
<path d="M18.4613 22.5H18.2104C15.3846 22.1776 12.6697 21.1673 10.2823 19.5497C8.06435 18.0685 6.18122 16.0978 4.76421 13.775C3.218 11.265 2.25437 8.40992 1.95064 5.43882C1.91591 5.08445 1.9502 4.72636 2.05143 4.3863C2.15266 4.04624 2.31871 3.73129 2.53953 3.46055C2.75429 3.18619 3.01938 2.95981 3.31909 2.79481C3.61881 2.62982 3.94705 2.52957 4.28437 2.5H7.11975C7.73384 2.50065 8.32748 2.73152 8.79345 3.15093C9.25942 3.57034 9.56701 4.15063 9.66069 4.78702C9.76423 5.60449 9.9582 6.40654 10.2387 7.17696C10.4093 7.6611 10.4445 8.18626 10.3402 8.69067C10.2358 9.19507 9.99632 9.65776 9.64978 10.0243L8.98456 10.7218C10.0319 12.4556 11.4368 13.921 13.0959 15.01L13.7611 14.3239C14.1106 13.9605 14.5519 13.7094 15.0329 13.6C15.514 13.4906 16.0148 13.5275 16.4765 13.7064C17.212 13.9978 17.9766 14.2011 18.7557 14.3125C19.373 14.4098 19.9352 14.7399 20.3367 15.241C20.7383 15.7421 20.9517 16.3797 20.9368 17.034V19.7784C20.9368 20.4922 20.6671 21.1769 20.1868 21.6827C19.7065 22.1884 19.0547 22.4741 18.374 22.4771L18.4613 22.5Z" fill="white"/>
</svg>
