<svg width="495" height="175" viewBox="0 0 495 175" fill="none" xmlns="http://www.w3.org/2000/svg">
<g clip-path="url(#clip0_1786_7258)">
<path d="M156.707 139.317L167.718 145.123C172.622 90.1398 126.529 73.6012 102.869 72.205C106.029 18.7689 57.4018 3.18089 32.6934 2.06641L38.1967 13.7345C81.8613 15.4864 93.4545 51.0254 93.8535 67.5481L106.436 81.6965C152.23 89.3489 159.031 123.299 156.707 139.317Z" fill="#0DB3A8" stroke="#0DB3A8"/>
<path d="M156.707 34.634L167.718 28.8281C172.622 83.8115 126.529 100.35 102.869 101.746C106.029 155.183 57.4018 170.771 32.6934 171.885L38.1967 160.217C81.8613 158.465 93.4545 122.926 93.8535 106.403L106.436 92.2549C152.23 84.6025 159.031 50.6525 156.707 34.634Z" fill="#0DB3A8" stroke="#0DB3A8"/>
<path d="M19.0163 139.317L8.00477 145.123C3.10155 90.1398 49.195 73.6012 72.8546 72.205C69.6945 18.7689 118.321 3.18089 143.03 2.06641L137.526 13.7345C93.8619 15.4864 82.2687 51.0254 81.8697 67.5481L69.2867 81.6965C23.4936 89.3489 16.6927 123.299 19.0163 139.317Z" fill="#0DB3A8" stroke="#0DB3A8"/>
<path d="M19.0163 34.634L8.00477 28.8281C3.10155 83.8115 49.195 100.35 72.8546 101.746C69.6945 155.183 118.321 170.771 143.03 171.885L137.526 160.217C93.8619 158.465 82.2687 122.926 81.8697 106.403L69.2867 92.2549C23.4936 84.6025 16.6927 50.6525 19.0163 34.634Z" fill="#0DB3A8" stroke="#0DB3A8"/>
<path d="M20.6079 168.827C27.4372 168.827 32.9735 163.297 32.9735 156.474C32.9735 149.652 27.4372 144.121 20.6079 144.121C13.7785 144.121 8.24219 149.652 8.24219 156.474C8.24219 163.297 13.7785 168.827 20.6079 168.827Z" fill="#0DB3A8"/>
<path d="M20.6079 28.8231C27.4372 28.8231 32.9735 23.2925 32.9735 16.4701C32.9735 9.6478 27.4372 4.11719 20.6079 4.11719C13.7785 4.11719 8.24219 9.6478 8.24219 16.4701C8.24219 23.2925 13.7785 28.8231 20.6079 28.8231Z" fill="#0DB3A8"/>
<path d="M154.567 168.827C161.396 168.827 166.933 163.297 166.933 156.474C166.933 149.652 161.396 144.121 154.567 144.121C147.737 144.121 142.201 149.652 142.201 156.474C142.201 163.297 147.737 168.827 154.567 168.827Z" fill="#0DB3A8"/>
<path d="M154.567 28.8231C161.396 28.8231 166.933 23.2925 166.933 16.4701C166.933 9.6478 161.396 4.11719 154.567 4.11719C147.737 4.11719 142.201 9.6478 142.201 16.4701C142.201 23.2925 147.737 28.8231 154.567 28.8231Z" fill="#0DB3A8"/>
<path fill-rule="evenodd" clip-rule="evenodd" d="M422.49 2.06641V90.596H438.978V57.6545H465.771C471.609 55.2525 483.29 44.4782 483.29 28.8311C483.29 13.184 471.609 4.46836 465.771 2.06641H422.49ZM438.978 17.5076V41.184H458.558C461.307 40.8408 466.802 36.037 466.802 28.8311C466.802 21.6252 461.307 17.8507 458.558 17.5076H438.978Z" fill="#0DB3A8"/>
<path d="M230.426 90.596L201.969 2.06641H219.248L239.575 65.3016L258.884 2.06641H276.163L246.689 90.596H230.426Z" fill="#0DB3A8"/>
<path d="M282.346 90.596V2.06641H341.083V18.537H298.833V37.0664H339.022V52.5076H298.833V74.1251H343.144V90.596H282.346Z" fill="#0DB3A8"/>
<path d="M350.361 18.537V2.06641H412.189V18.537H389.519V90.596H373.032V18.537H350.361Z" fill="#0DB3A8"/>
<path d="M202.095 107.298L206.148 124.43H206.308L210.354 107.298H213.456L207.966 129.063H204.483L199 107.298H202.095Z" fill="#0DB3A8"/>
<path d="M228.694 118.18C228.694 120.526 228.38 122.534 227.751 124.206C227.128 125.871 226.276 127.147 225.196 128.032C224.121 128.918 222.902 129.361 221.538 129.361C220.175 129.361 218.953 128.918 217.873 128.032C216.798 127.14 215.947 125.861 215.318 124.196C214.694 122.524 214.383 120.519 214.383 118.18C214.383 115.835 214.694 113.83 215.318 112.165C215.947 110.493 216.798 109.214 217.873 108.328C218.953 107.443 220.175 107 221.538 107C222.902 107 224.121 107.443 225.196 108.328C226.276 109.214 227.128 110.493 227.751 112.165C228.38 113.83 228.694 115.835 228.694 118.18ZM225.858 118.18C225.858 116.53 225.673 115.137 225.303 114.004C224.938 112.863 224.431 112.002 223.782 111.421C223.133 110.833 222.385 110.539 221.538 110.539C220.692 110.539 219.944 110.833 219.295 111.421C218.646 112.002 218.137 112.863 217.767 114.004C217.402 115.137 217.219 116.53 217.219 118.18C217.219 119.831 217.402 121.227 217.767 122.368C218.137 123.501 218.646 124.362 219.295 124.95C219.944 125.531 220.692 125.822 221.538 125.822C222.385 125.822 223.133 125.531 223.782 124.95C224.431 124.362 224.938 123.501 225.303 122.368C225.673 121.227 225.858 119.831 225.858 118.18Z" fill="#0DB3A8"/>
<path d="M244.799 114.641H241.955C241.874 113.99 241.725 113.412 241.507 112.909C241.289 112.399 241.017 111.967 240.693 111.612C240.368 111.258 239.998 110.993 239.583 110.815C239.172 110.631 238.728 110.539 238.252 110.539C237.405 110.539 236.655 110.837 236.001 111.432C235.347 112.02 234.835 112.884 234.465 114.025C234.095 115.159 233.91 116.544 233.91 118.18C233.91 119.846 234.095 121.248 234.465 122.389C234.84 123.523 235.352 124.38 236.001 124.961C236.655 125.535 237.403 125.822 238.244 125.822C238.711 125.822 239.147 125.737 239.552 125.567C239.963 125.39 240.33 125.131 240.655 124.791C240.984 124.451 241.261 124.033 241.484 123.537C241.712 123.041 241.869 122.474 241.955 121.836L244.799 121.858C244.693 122.892 244.462 123.863 244.107 124.77C243.758 125.677 243.299 126.477 242.731 127.172C242.163 127.859 241.499 128.397 240.739 128.787C239.978 129.17 239.134 129.361 238.206 129.361C236.837 129.361 235.616 128.918 234.541 128.032C233.466 127.147 232.619 125.868 232.001 124.196C231.382 122.524 231.073 120.519 231.073 118.18C231.073 115.835 231.385 113.83 232.009 112.165C232.632 110.493 233.481 109.214 234.556 108.328C235.631 107.443 236.848 107 238.206 107C239.073 107 239.879 107.17 240.624 107.51C241.37 107.85 242.034 108.35 242.617 109.009C243.2 109.661 243.679 110.461 244.054 111.411C244.434 112.353 244.683 113.43 244.799 114.641Z" fill="#0DB3A8"/>
<path d="M249.302 129.063H246.29L251.773 107.298H255.256L260.747 129.063H257.735L253.576 111.761H253.454L249.302 129.063ZM249.401 120.529H257.614V123.696H249.401V120.529Z" fill="#0DB3A8"/>
<path d="M260.338 110.603V107.298H272.764V110.603H267.951V129.063H265.152V110.603H260.338Z" fill="#0DB3A8"/>
<path d="M278.088 107.298V129.063H275.267V107.298H278.088Z" fill="#0DB3A8"/>
<path d="M295.166 118.18C295.166 120.526 294.852 122.534 294.223 124.206C293.6 125.871 292.748 127.147 291.668 128.032C290.594 128.918 289.374 129.361 288.011 129.361C286.647 129.361 285.425 128.918 284.345 128.032C283.27 127.14 282.419 125.861 281.79 124.196C281.167 122.524 280.855 120.519 280.855 118.18C280.855 115.835 281.167 113.83 281.79 112.165C282.419 110.493 283.27 109.214 284.345 108.328C285.425 107.443 286.647 107 288.011 107C289.374 107 290.594 107.443 291.668 108.328C292.748 109.214 293.6 110.493 294.223 112.165C294.852 113.83 295.166 115.835 295.166 118.18ZM292.33 118.18C292.33 116.53 292.145 115.137 291.775 114.004C291.41 112.863 290.903 112.002 290.254 111.421C289.605 110.833 288.857 110.539 288.011 110.539C287.164 110.539 286.416 110.833 285.767 111.421C285.118 112.002 284.609 112.863 284.239 114.004C283.874 115.137 283.691 116.53 283.691 118.18C283.691 119.831 283.874 121.227 284.239 122.368C284.609 123.501 285.118 124.362 285.767 124.95C286.416 125.531 287.164 125.822 288.011 125.822C288.857 125.822 289.605 125.531 290.254 124.95C290.903 124.362 291.41 123.501 291.775 122.368C292.145 121.227 292.33 119.831 292.33 118.18Z" fill="#0DB3A8"/>
<path d="M310.739 107.298V129.063H308.23L300.891 114.238H300.762V129.063H297.941V107.298H300.465L307.796 122.134H307.933V107.298H310.739Z" fill="#0DB3A8"/>
<path d="M315.92 129.063H312.909L318.392 107.298H321.875L327.365 129.063H324.354L320.194 111.761H320.072L315.92 129.063ZM316.019 120.529H324.232V123.696H316.019V120.529Z" fill="#0DB3A8"/>
<path d="M329.523 129.063V107.298H332.345V125.758H339.204V129.063H329.523Z" fill="#0DB3A8"/>
<path d="M348.179 129.063V107.298H358.308V110.603H351V116.512H357.783V119.817H351V125.758H358.369V129.063H348.179Z" fill="#0DB3A8"/>
<path d="M366.571 129.063H361.293V107.298H366.677C368.223 107.298 369.552 107.733 370.662 108.605C371.777 109.469 372.634 110.713 373.232 112.335C373.83 113.958 374.13 115.899 374.13 118.159C374.13 120.427 373.828 122.375 373.225 124.005C372.626 125.634 371.762 126.885 370.631 127.756C369.506 128.628 368.152 129.063 366.571 129.063ZM364.114 125.652H366.434C367.519 125.652 368.424 125.376 369.149 124.823C369.874 124.263 370.419 123.431 370.784 122.325C371.149 121.213 371.331 119.824 371.331 118.159C371.331 116.494 371.149 115.113 370.784 114.014C370.419 112.909 369.879 112.084 369.164 111.538C368.454 110.985 367.572 110.709 366.517 110.709H364.114V125.652Z" fill="#0DB3A8"/>
<path d="M386.735 107.298H389.556V121.518C389.556 123.076 389.292 124.447 388.765 125.631C388.243 126.814 387.508 127.738 386.56 128.404C385.612 129.063 384.504 129.393 383.237 129.393C381.964 129.393 380.854 129.063 379.906 128.404C378.958 127.738 378.223 126.814 377.701 125.631C377.178 124.447 376.917 123.076 376.917 121.518V107.298H379.738V121.188C379.738 122.095 379.88 122.903 380.164 123.611C380.453 124.32 380.859 124.876 381.381 125.28C381.903 125.677 382.522 125.875 383.237 125.875C383.951 125.875 384.57 125.677 385.092 125.28C385.619 124.876 386.025 124.32 386.309 123.611C386.593 122.903 386.735 122.095 386.735 121.188V107.298Z" fill="#0DB3A8"/>
<path d="M406.06 114.641H403.216C403.135 113.99 402.985 113.412 402.767 112.909C402.549 112.399 402.278 111.967 401.954 111.612C401.629 111.258 401.259 110.993 400.844 110.815C400.433 110.631 399.989 110.539 399.513 110.539C398.666 110.539 397.916 110.837 397.262 111.432C396.608 112.02 396.096 112.884 395.726 114.025C395.356 115.159 395.171 116.544 395.171 118.18C395.171 119.846 395.356 121.248 395.726 122.389C396.101 123.523 396.613 124.38 397.262 124.961C397.916 125.535 398.664 125.822 399.505 125.822C399.972 125.822 400.408 125.737 400.813 125.567C401.224 125.39 401.591 125.131 401.916 124.791C402.245 124.451 402.522 124.033 402.745 123.537C402.973 123.041 403.13 122.474 403.216 121.836L406.06 121.858C405.954 122.892 405.723 123.863 405.368 124.77C405.018 125.677 404.56 126.477 403.992 127.172C403.424 127.859 402.76 128.397 401.999 128.787C401.239 129.17 400.395 129.361 399.467 129.361C398.098 129.361 396.876 128.918 395.802 128.032C394.727 127.147 393.88 125.868 393.262 124.196C392.643 122.524 392.334 120.519 392.334 118.18C392.334 115.835 392.646 113.83 393.269 112.165C393.893 110.493 394.742 109.214 395.817 108.328C396.892 107.443 398.108 107 399.467 107C400.334 107 401.14 107.17 401.885 107.51C402.631 107.85 403.295 108.35 403.878 109.009C404.461 109.661 404.94 110.461 405.315 111.411C405.695 112.353 405.944 113.43 406.06 114.641Z" fill="#0DB3A8"/>
<path d="M410.563 129.063H407.551L413.034 107.298H416.517L422.007 129.063H418.996L414.836 111.761H414.715L410.563 129.063ZM410.662 120.529H418.874V123.696H410.662V120.529Z" fill="#0DB3A8"/>
<path d="M421.599 110.603V107.298H434.025V110.603H429.211V129.063H426.413V110.603H421.599Z" fill="#0DB3A8"/>
<path d="M439.349 107.298V129.063H436.528V107.298H439.349Z" fill="#0DB3A8"/>
<path d="M456.427 118.18C456.427 120.526 456.113 122.534 455.484 124.206C454.861 125.871 454.009 127.147 452.929 128.032C451.854 128.918 450.635 129.361 449.271 129.361C447.908 129.361 446.686 128.918 445.606 128.032C444.531 127.14 443.68 125.861 443.051 124.196C442.427 122.524 442.116 120.519 442.116 118.18C442.116 115.835 442.427 113.83 443.051 112.165C443.68 110.493 444.531 109.214 445.606 108.328C446.686 107.443 447.908 107 449.271 107C450.635 107 451.854 107.443 452.929 108.328C454.009 109.214 454.861 110.493 455.484 112.165C456.113 113.83 456.427 115.835 456.427 118.18ZM453.591 118.18C453.591 116.53 453.406 115.137 453.036 114.004C452.671 112.863 452.164 112.002 451.515 111.421C450.866 110.833 450.118 110.539 449.271 110.539C448.425 110.539 447.677 110.833 447.028 111.421C446.379 112.002 445.87 112.863 445.5 114.004C445.135 115.137 444.952 116.53 444.952 118.18C444.952 119.831 445.135 121.227 445.5 122.368C445.87 123.501 446.379 124.362 447.028 124.95C447.677 125.531 448.425 125.822 449.271 125.822C450.118 125.822 450.866 125.531 451.515 124.95C452.164 124.362 452.671 123.501 453.036 122.368C453.406 121.227 453.591 119.831 453.591 118.18Z" fill="#0DB3A8"/>
<path d="M471 107.298V129.063H468.491L461.152 114.238H461.023V129.063H458.202V107.298H460.726L468.057 122.134H468.194V107.298H471Z" fill="#0DB3A8"/>
<path d="M205 145.213V141.903H217.556V145.213H212.692V163.7H209.864V145.213H205Z" fill="#0DB3A8"/>
<path d="M220.085 163.7V141.903H225.987C227.196 141.903 228.21 142.194 229.03 142.776C229.854 143.358 230.477 144.174 230.897 145.224C231.322 146.267 231.535 147.484 231.535 148.875C231.535 150.272 231.32 151.486 230.889 152.515C230.464 153.536 229.837 154.327 229.007 154.888C228.177 155.441 227.157 155.718 225.948 155.718H221.745V152.44H225.564C226.271 152.44 226.85 152.305 227.301 152.036C227.752 151.759 228.085 151.358 228.3 150.833C228.52 150.301 228.63 149.648 228.63 148.875C228.63 148.101 228.52 147.441 228.3 146.895C228.079 146.342 227.744 145.923 227.293 145.639C226.842 145.348 226.261 145.203 225.549 145.203H222.936V163.7H220.085ZM228.215 153.824L232.111 163.7H228.93L225.103 153.824H228.215Z" fill="#0DB3A8"/>
<path d="M236.288 163.7H233.245L238.786 141.903H242.305L247.853 163.7H244.81L240.607 146.374H240.484L236.288 163.7ZM236.388 155.154H244.687V158.326H236.388V155.154Z" fill="#0DB3A8"/>
<path d="M252.885 141.903V163.7H250.034V141.903H252.885Z" fill="#0DB3A8"/>
<path d="M269.013 141.903V163.7H266.478L259.062 148.853H258.931V163.7H256.081V141.903H258.632L266.04 156.761H266.178V141.903H269.013Z" fill="#0DB3A8"/>
<path d="M275.079 141.903V163.7H272.228V141.903H275.079Z" fill="#0DB3A8"/>
<path d="M291.207 141.903V163.7H288.671L281.256 148.853H281.125V163.7H278.274V141.903H280.825L288.233 156.761H288.372V141.903H291.207Z" fill="#0DB3A8"/>
<path d="M304.965 148.864C304.837 148.289 304.66 147.775 304.434 147.321C304.214 146.86 303.948 146.466 303.635 146.139C303.328 145.813 302.974 145.568 302.575 145.405C302.175 145.235 301.74 145.15 301.268 145.15C300.423 145.15 299.67 145.444 299.009 146.033C298.348 146.622 297.828 147.487 297.449 148.63C297.075 149.765 296.888 151.149 296.888 152.781C296.888 154.427 297.075 155.821 297.449 156.963C297.823 158.106 298.343 158.975 299.009 159.571C299.675 160.16 300.449 160.454 301.33 160.454C302.129 160.454 302.821 160.241 303.405 159.816C303.994 159.39 304.447 158.787 304.765 158.006C305.082 157.219 305.241 156.296 305.241 155.239L305.887 155.378H301.614V152.291H308V154.909C308 156.775 307.713 158.389 307.139 159.752C306.566 161.114 305.777 162.164 304.773 162.902C303.768 163.633 302.616 163.998 301.315 163.998C299.865 163.998 298.592 163.548 297.495 162.647C296.404 161.738 295.551 160.451 294.937 158.783C294.327 157.109 294.022 155.122 294.022 152.823C294.022 151.064 294.201 149.492 294.56 148.108C294.924 146.725 295.431 145.55 296.082 144.586C296.732 143.613 297.495 142.876 298.371 142.372C299.247 141.861 300.2 141.605 301.23 141.605C302.101 141.605 302.913 141.783 303.666 142.138C304.419 142.485 305.088 142.982 305.672 143.628C306.261 144.273 306.745 145.04 307.124 145.927C307.503 146.813 307.752 147.793 307.869 148.864H304.965Z" fill="#0DB3A8"/>
<path d="M317 163.669V141.903H323.018C324.251 141.903 325.286 142.215 326.121 142.838C326.963 143.462 327.597 144.319 328.026 145.41C328.459 146.494 328.676 147.727 328.676 149.109C328.676 150.505 328.459 151.744 328.026 152.828C327.592 153.913 326.952 154.766 326.106 155.39C325.259 156.006 324.217 156.314 322.979 156.314H318.99V153.073H322.587C323.308 153.073 323.899 152.903 324.358 152.563C324.818 152.223 325.158 151.755 325.377 151.16C325.602 150.565 325.714 149.881 325.714 149.109C325.714 148.336 325.602 147.656 325.377 147.068C325.158 146.48 324.815 146.023 324.35 145.697C323.891 145.364 323.298 145.198 322.572 145.198H319.907V163.669H317Z" fill="#0DB3A8"/>
<path d="M331.584 163.669H328.481L334.131 141.903H337.72L343.378 163.669H340.274L335.988 146.367H335.863L331.584 163.669ZM331.686 155.135H340.149V158.302H331.686V155.135Z" fill="#0DB3A8"/>
<path d="M345.602 163.669V141.903H351.62C352.853 141.903 353.887 142.194 354.723 142.775C355.564 143.356 356.199 144.17 356.627 145.219C357.061 146.26 357.278 147.476 357.278 148.864C357.278 150.26 357.058 151.472 356.62 152.499C356.186 153.519 355.546 154.309 354.7 154.869C353.853 155.422 352.814 155.698 351.581 155.698H347.294V152.425H351.189C351.91 152.425 352.5 152.29 352.96 152.021C353.42 151.744 353.759 151.344 353.979 150.82C354.203 150.288 354.316 149.637 354.316 148.864C354.316 148.092 354.203 147.433 353.979 146.888C353.754 146.335 353.412 145.917 352.952 145.633C352.493 145.343 351.9 145.198 351.173 145.198H348.509V163.669H345.602ZM353.893 153.806L357.866 163.669H354.621L350.719 153.806H353.893Z" fill="#0DB3A8"/>
<path d="M359.359 145.208V141.903H372.164V145.208H367.203V163.669H364.319V145.208H359.359Z" fill="#0DB3A8"/>
<path d="M387.931 141.903V163.669H385.345L377.783 148.843H377.65V163.669H374.742V141.903H377.344L384.898 156.74H385.039V141.903H387.931Z" fill="#0DB3A8"/>
<path d="M391.209 163.669V141.903H401.647V145.208H394.116V151.117H401.106V154.423H394.116V160.364H401.71V163.669H391.209Z" fill="#0DB3A8"/>
<path d="M404.723 163.669V141.903H410.742C411.974 141.903 413.009 142.194 413.845 142.775C414.686 143.356 415.321 144.17 415.749 145.219C416.183 146.26 416.399 147.476 416.399 148.864C416.399 150.26 416.18 151.472 415.741 152.499C415.308 153.519 414.668 154.309 413.821 154.869C412.975 155.422 411.935 155.698 410.702 155.698H406.416V152.425H410.311C411.032 152.425 411.622 152.29 412.082 152.021C412.541 151.744 412.881 151.344 413.1 150.82C413.325 150.288 413.437 149.637 413.437 148.864C413.437 148.092 413.325 147.433 413.1 146.888C412.876 146.335 412.533 145.917 412.074 145.633C411.614 145.343 411.021 145.198 410.295 145.198H407.631V163.669H404.723ZM413.014 153.806L416.987 163.669H413.743L409.84 153.806H413.014Z" fill="#0DB3A8"/>
<path d="M427.908 147.887C427.834 146.958 427.526 146.236 426.983 145.718C426.445 145.201 425.745 144.943 424.883 144.943C424.277 144.943 423.757 145.067 423.323 145.315C422.89 145.563 422.558 145.899 422.328 146.324C422.098 146.749 421.981 147.235 421.976 147.78C421.976 148.234 422.051 148.627 422.203 148.96C422.36 149.293 422.571 149.576 422.838 149.81C423.104 150.037 423.399 150.228 423.723 150.384C424.047 150.54 424.373 150.671 424.703 150.777L426.207 151.287C426.813 151.479 427.396 151.737 427.955 152.063C428.519 152.389 429.023 152.8 429.467 153.296C429.916 153.792 430.272 154.391 430.533 155.092C430.794 155.794 430.925 156.616 430.925 157.558C430.925 158.833 430.684 159.956 430.204 160.927C429.723 161.89 429.028 162.645 428.119 163.191C427.215 163.729 426.121 163.998 424.836 163.998C423.587 163.998 422.503 163.736 421.584 163.212C420.669 162.688 419.954 161.922 419.437 160.916C418.925 159.91 418.648 158.684 418.606 157.239H421.466C421.508 157.997 421.68 158.628 421.983 159.131C422.286 159.634 422.681 160.009 423.167 160.257C423.658 160.505 424.206 160.629 424.812 160.629C425.444 160.629 425.998 160.502 426.474 160.247C426.954 159.985 427.33 159.623 427.602 159.163C427.874 158.695 428.012 158.149 428.017 157.526C428.012 156.959 427.889 156.492 427.649 156.123C427.409 155.748 427.072 155.436 426.638 155.188C426.21 154.933 425.708 154.706 425.134 154.508L423.308 153.87C421.986 153.409 420.941 152.712 420.173 151.776C419.41 150.834 419.029 149.583 419.029 148.025C419.029 146.742 419.285 145.619 419.797 144.656C420.314 143.692 421.017 142.945 421.905 142.413C422.793 141.875 423.799 141.605 424.922 141.605C426.061 141.605 427.059 141.875 427.915 142.413C428.777 142.945 429.454 143.685 429.945 144.634C430.436 145.577 430.69 146.661 430.705 147.887H427.908Z" fill="#0DB3A8"/>
<path d="M433.627 163.669V141.903H436.534V151.117H443.971V141.903H446.886V163.669H443.971V154.423H436.534V163.669H433.627Z" fill="#0DB3A8"/>
<path d="M453.065 141.903V163.669H450.158V141.903H453.065Z" fill="#0DB3A8"/>
<path d="M456.324 163.669V141.903H462.342C463.575 141.903 464.61 142.215 465.445 142.838C466.286 143.462 466.921 144.319 467.35 145.41C467.783 146.494 468 147.727 468 149.109C468 150.505 467.783 151.744 467.35 152.828C466.916 153.913 466.276 154.766 465.43 155.39C464.583 156.006 463.541 156.314 462.303 156.314H458.314V153.073H461.911C462.632 153.073 463.222 152.903 463.682 152.563C464.142 152.223 464.482 151.755 464.701 151.16C464.926 150.565 465.038 149.881 465.038 149.109C465.038 148.336 464.926 147.656 464.701 147.068C464.482 146.48 464.139 146.023 463.674 145.697C463.215 145.364 462.622 145.198 461.896 145.198H459.231V163.669H456.324Z" fill="#0DB3A8"/>
</g>
<defs>
<clipPath id="clip0_1786_7258">
<rect width="495" height="175" fill="white"/>
</clipPath>
</defs>
</svg>
