<svg width="95" height="100" viewBox="0 0 95 100" fill="none" xmlns="http://www.w3.org/2000/svg">
<g clip-path="url(#clip0_1771_6976)">
<path d="M87.6962 80.5807L94.1186 83.9388C96.9782 52.1367 70.0952 42.5708 56.2961 41.7633C58.1391 10.856 29.778 1.83992 15.3672 1.19531L18.5769 7.94408C44.0437 8.9574 50.8052 29.5131 51.0379 39.0697L58.3768 47.2531C85.085 51.6793 89.0515 71.3159 87.6962 80.5807Z" fill="#0DB3A8" stroke="#0DB3A8"/>
<path d="M87.6962 20.03L94.1186 16.6719C96.9782 48.4741 70.0952 58.0398 56.2961 58.8474C58.1391 89.755 29.778 98.771 15.3672 99.4155L18.5769 92.6666C44.0437 91.6535 50.8052 71.0978 51.0379 61.5409L58.3768 53.3577C85.085 48.9316 89.0515 29.295 87.6962 20.03Z" fill="#0DB3A8" stroke="#0DB3A8"/>
<path d="M7.38944 80.5807L0.967101 83.9388C-1.89263 52.1367 24.9907 42.5708 38.7898 41.7633C36.9467 10.856 65.3076 1.83992 79.7185 1.19531L76.5087 7.94408C51.042 8.9574 44.2804 29.5131 44.0477 39.0697L36.7089 47.2531C10.0007 51.6793 6.03421 71.3159 7.38944 80.5807Z" fill="#0DB3A8" stroke="#0DB3A8"/>
<path d="M7.38944 20.03L0.967101 16.6719C-1.89263 48.4741 24.9907 58.0398 38.7898 58.8474C36.9467 89.755 65.3076 98.771 79.7185 99.4155L76.5087 92.6666C51.042 91.6535 44.2804 71.0978 44.0477 61.5409L36.7089 53.3577C10.0007 48.9316 6.03421 29.295 7.38944 20.03Z" fill="#0DB3A8" stroke="#0DB3A8"/>
<path d="M8.31757 97.6491C12.3007 97.6491 15.5296 94.4504 15.5296 90.5044C15.5296 86.5584 12.3007 83.3594 8.31757 83.3594C4.33444 83.3594 1.10547 86.5584 1.10547 90.5044C1.10547 94.4504 4.33444 97.6491 8.31757 97.6491Z" fill="#0DB3A8"/>
<path d="M8.31757 16.6726C12.3007 16.6726 15.5296 13.4737 15.5296 9.52772C15.5296 5.5817 12.3007 2.38281 8.31757 2.38281C4.33444 2.38281 1.10547 5.5817 1.10547 9.52772C1.10547 13.4737 4.33444 16.6726 8.31757 16.6726Z" fill="#0DB3A8"/>
<path d="M86.4484 97.6491C90.4316 97.6491 93.6605 94.4504 93.6605 90.5044C93.6605 86.5584 90.4316 83.3594 86.4484 83.3594C82.4652 83.3594 79.2363 86.5584 79.2363 90.5044C79.2363 94.4504 82.4652 97.6491 86.4484 97.6491Z" fill="#0DB3A8"/>
<path d="M86.4484 16.6726C90.4316 16.6726 93.6605 13.4737 93.6605 9.52772C93.6605 5.5817 90.4316 2.38281 86.4484 2.38281C82.4652 2.38281 79.2363 5.5817 79.2363 9.52772C79.2363 13.4737 82.4652 16.6726 86.4484 16.6726Z" fill="#0DB3A8"/>
</g>
<defs>
<clipPath id="clip0_1771_6976">
<rect width="95" height="100" fill="white"/>
</clipPath>
</defs>
</svg>
