<svg width="96" height="96" viewBox="0 0 96 96" fill="none" xmlns="http://www.w3.org/2000/svg">
<rect width="96" height="96" rx="5" fill="#F5F5F5"/>
<path d="M56.7672 56.7674H40.0231C39.579 56.7674 39.1531 56.591 38.8391 56.277C38.525 55.963 38.3486 55.5371 38.3486 55.093V43.3721C38.3486 42.928 38.525 42.5021 38.8391 42.1881C39.1531 41.8741 39.579 41.6977 40.0231 41.6977H43.3719L45.0463 39.1861H51.744L53.4184 41.6977H56.7672C57.2113 41.6977 57.6372 41.8741 57.9512 42.1881C58.2652 42.5021 58.4417 42.928 58.4417 43.3721V55.093C58.4417 55.5371 58.2652 55.963 57.9512 56.277C57.6372 56.591 57.2113 56.7674 56.7672 56.7674Z" stroke="#1F1F1F" stroke-opacity="0.5" stroke-width="1.5" stroke-linecap="round" stroke-linejoin="round"/>
<path d="M48.3954 52.5814C50.4761 52.5814 52.1628 50.8947 52.1628 48.814C52.1628 46.7332 50.4761 45.0465 48.3954 45.0465C46.3147 45.0465 44.6279 46.7332 44.6279 48.814C44.6279 50.8947 46.3147 52.5814 48.3954 52.5814Z" stroke="#1F1F1F" stroke-opacity="0.5" stroke-width="1.5" stroke-linecap="round" stroke-linejoin="round"/>
</svg>
